<svg aria-hidden="true" focusable="false" data-prefix="fas" data-icon="ban" class="svg-inline--fa fa-ban fa-w-16" role="img" xmlns="http://www.w3.org/2000/svg" viewBox="0 0 512 512"><path fill="currentColor" d="M256 8C119.034 8 8 119.033 8 256s111.034 248 248 248 248-111.034 248-248S392.967 8 256 8zm130.109 378.891c-13.91 13.91-36.494 13.91-50.403 0L256 306.498l-79.705 79.705c-13.91 13.91-36.494 13.91-50.403 0-13.91-13.91-13.91-36.494 0-50.403l79.705-79.705-79.705-79.705c-13.91-13.91-13.91-36.494 0-50.403 13.91-13.91 36.494-13.91 50.403 0L256 205.502l79.705-79.705c13.91-13.91 36.494-13.91 50.403 0 13.91 13.91 13.91 36.494 0 50.403L306.498 256l79.705 79.705c13.91 13.91 13.91 36.494 0 50.403z"></path></svg> 