<?xml version="1.0" standalone="no"?><!DOCTYPE svg PUBLIC "-//W3C//DTD SVG 1.1//EN" "http://www.w3.org/Graphics/SVG/1.1/DTD/svg11.dtd"><svg t="1748264530143" class="icon" viewBox="0 0 1024 1024" version="1.1" xmlns="http://www.w3.org/2000/svg" p-id="8681" width="64" height="64" xmlns:xlink="http://www.w3.org/1999/xlink"><path d="M468.8 203.2H201.6v267.2h267.2V203.2z m-32 235.2H233.6V235.2h203.2v203.2z" fill="#707070" p-id="8682"></path><path d="M395.2 276.8h-120v120h120v-120z m-16 104h-88v-88h88v88zM752 276.8h-120v120H752v-120z m-16 104h-88v-88H736v88z" fill="#707070" p-id="8683"></path><path d="M822.4 203.2H555.2v267.2h267.2V203.2z m-32 235.2H587.2V235.2h203.2v203.2zM395.2 635.2h-120v120h120v-120z m-16 104h-88v-88h88v88z" fill="#707070" p-id="8684"></path><path d="M468.8 553.6H201.6v267.2h267.2V553.6z m-32 235.2H233.6V585.6h203.2v203.2zM504 203.2h16v616h-16zM561.6 510.4h16v308.8h-16zM201.6 505.6h265.6v16H201.6zM681.6 819.2h142.4v-142.4h-142.4v142.4z m32-108.8h78.4v78.4h-78.4v-78.4zM619.2 510.4h16v308.8h-16zM681.6 510.4h16v120h-16zM742.4 510.4h16v120h-16zM806.4 510.4h16v120h-16z" fill="#707070" p-id="8685"></path></svg>