<svg xmlns="http://www.w3.org/2000/svg" viewBox="0 0 1792 1792">
  <path fill="currentColor" d="M526 1394q0 53-37.5 90.5T398 1522q-54 0-90.5-37.5T270 1394q0-53 36.5-90.5T397 1266q53 0 90.5 37.5T526 1394zm498 206q0 53-37.5 90.5T896 1728t-90.5-37.5T768 1600t37.5-90.5T896 1472t90.5 37.5T1024 1600zm-704-704q0 53-37.5 90.5T192 1024t-90.5-37.5T64 896t37.5-90.5T192 768t90.5 37.5T320 896zm1202 498q0 52-38 90t-90 38q-53 0-90.5-37.5T1266 1394q0-53 37.5-90.5t90.5-37.5q52 0 90 38t38 90zM1024 192q0 53-37.5 90.5T896 320t-90.5-37.5T768 192t37.5-90.5T896 64t90.5 37.5T1024 192zm896 704q0 53-37.5 90.5T1792 1024t-90.5-37.5T1664 896t37.5-90.5T1792 768t90.5 37.5T1920 896zm-704-704q0 53-37.5 90.5T1088 320t-90.5-37.5T960 192t37.5-90.5T1088 64t90.5 37.5T1216 192zm704 896q0 53-37.5 90.5T1792 1216t-90.5-37.5T1664 1088t37.5-90.5T1792 960t90.5 37.5T1920 1088z"/>
  <animateTransform attributeName="transform" type="rotate" values="0 896 896;360 896 896" dur="2s" repeatCount="indefinite"/>
</svg>